<svg version="1" xmlns="http://www.w3.org/2000/svg" width="24" height="24" viewBox="0 0 24 24"><path fill-rule="evenodd" clip-rule="evenodd" d="M14.25 14.506c-.408 1.635-3.16.75-4.054.53l.723-2.9c.892.224 3.754.665 3.33 2.37m-2.345-6.324l-.655 2.63c.743.184 3.034.94 3.406-.548.387-1.55-2.008-1.897-2.75-2.082m11.7 6.718c-1.603 6.43-8.115 10.34-14.544 8.74C2.635 22.034-1.278 15.523.325 9.095 1.927 2.666 8.44-1.246 14.867.356c6.43 1.603 10.342 8.116 8.74 14.544m-8.99-7.64l.54-2.163-1.317-.328-.525 2.105c-.346-.086-.702-.167-1.054-.248l.53-2.12-1.317-.328-.54 2.16c-.286-.064-.567-.128-.84-.196v-.007L8.28 5.684l-.35 1.406s.977.224.956.237c.534.134.63.486.614.766l-.615 2.464c.037.01.085.024.137.044l-.14-.033-.86 3.452c-.065.16-.23.403-.603.31.013.02-.957-.238-.957-.238L5.806 15.6l1.713.427c.318.08.63.163.938.242l-.545 2.187 1.315.328.54-2.165c.36.098.708.188 1.05.273l-.538 2.154 1.316.328.545-2.183c2.246.425 3.935.253 4.645-1.777.573-1.635-.028-2.578-1.21-3.193.86-.2 1.51-.765 1.682-1.934.24-1.597-.977-2.455-2.64-3.028"/></svg>