<svg version="1" xmlns="http://www.w3.org/2000/svg" width="24" height="24" viewBox="0 0 24 24"><path fill-rule="evenodd" clip-rule="evenodd" fill="#21556F" d="M12.3 10.998c2.205 0 4 1.794 4 4 0 1.86-1.277 3.428-3 3.873v1.127h-2V18.87c-1.724-.444-3-2.012-3-3.872h2c0 1.102.897 2 2 2s2-.898 2-2-.898-2-2-2c-2.206 0-4-1.795-4-4 0-1.86 1.276-3.43 3-3.874V3.998h2v1.126c1.723.445 3 2.013 3 3.874h-2c0-1.103-.898-2-2-2s-2 .897-2 2 .897 2 2 2m0-11c-6.617 0-12 5.383-12 12s5.383 12 12 12 12-5.384 12-12-5.384-12-12-12"/></svg>